<mxfile host="app.diagrams.net" agent="Mozilla/5.0 (Windows NT 10.0; Win64; x64; rv:129.0) Gecko/20100101 Firefox/129.0" version="24.7.10">
  <diagram name="Страница — 1" id="xRTjaTMlnkvDZxv1JxNh">
    <mxGraphModel dx="554" dy="776" grid="1" gridSize="10" guides="1" tooltips="1" connect="1" arrows="1" fold="1" page="1" pageScale="1" pageWidth="827" pageHeight="1169" math="0" shadow="0">
      <root>
        <mxCell id="0" />
        <mxCell id="1" parent="0" />
        <mxCell id="TtNOCvs6G_dxDZ-sjj0B-47" style="rounded=0;orthogonalLoop=1;jettySize=auto;html=1;entryX=0;entryY=0.5;entryDx=0;entryDy=0;endArrow=none;endFill=0;" edge="1" parent="1" source="TtNOCvs6G_dxDZ-sjj0B-3" target="TtNOCvs6G_dxDZ-sjj0B-5">
          <mxGeometry relative="1" as="geometry" />
        </mxCell>
        <mxCell id="TtNOCvs6G_dxDZ-sjj0B-3" value="фио" style="ellipse;whiteSpace=wrap;html=1;align=center;" vertex="1" parent="1">
          <mxGeometry y="250" width="100" height="40" as="geometry" />
        </mxCell>
        <mxCell id="TtNOCvs6G_dxDZ-sjj0B-14" style="edgeStyle=orthogonalEdgeStyle;rounded=0;orthogonalLoop=1;jettySize=auto;html=1;entryX=0.5;entryY=0;entryDx=0;entryDy=0;endArrow=none;endFill=0;" edge="1" parent="1" source="TtNOCvs6G_dxDZ-sjj0B-5" target="TtNOCvs6G_dxDZ-sjj0B-13">
          <mxGeometry relative="1" as="geometry" />
        </mxCell>
        <mxCell id="TtNOCvs6G_dxDZ-sjj0B-17" value="*" style="edgeLabel;html=1;align=center;verticalAlign=middle;resizable=0;points=[];" vertex="1" connectable="0" parent="TtNOCvs6G_dxDZ-sjj0B-14">
          <mxGeometry x="-0.52" y="-2" relative="1" as="geometry">
            <mxPoint as="offset" />
          </mxGeometry>
        </mxCell>
        <mxCell id="TtNOCvs6G_dxDZ-sjj0B-22" style="edgeStyle=orthogonalEdgeStyle;rounded=0;orthogonalLoop=1;jettySize=auto;html=1;exitX=0.5;exitY=0;exitDx=0;exitDy=0;entryX=0;entryY=0.5;entryDx=0;entryDy=0;endArrow=none;endFill=0;" edge="1" parent="1" source="TtNOCvs6G_dxDZ-sjj0B-5" target="TtNOCvs6G_dxDZ-sjj0B-21">
          <mxGeometry relative="1" as="geometry" />
        </mxCell>
        <mxCell id="TtNOCvs6G_dxDZ-sjj0B-23" value="*" style="edgeLabel;html=1;align=center;verticalAlign=middle;resizable=0;points=[];" vertex="1" connectable="0" parent="TtNOCvs6G_dxDZ-sjj0B-22">
          <mxGeometry x="-0.448" y="-2" relative="1" as="geometry">
            <mxPoint as="offset" />
          </mxGeometry>
        </mxCell>
        <mxCell id="TtNOCvs6G_dxDZ-sjj0B-52" style="rounded=0;orthogonalLoop=1;jettySize=auto;html=1;entryX=0;entryY=0.5;entryDx=0;entryDy=0;endArrow=none;endFill=0;" edge="1" parent="1" source="TtNOCvs6G_dxDZ-sjj0B-5" target="TtNOCvs6G_dxDZ-sjj0B-6">
          <mxGeometry relative="1" as="geometry" />
        </mxCell>
        <mxCell id="TtNOCvs6G_dxDZ-sjj0B-53" value="*" style="edgeLabel;html=1;align=center;verticalAlign=middle;resizable=0;points=[];" vertex="1" connectable="0" parent="TtNOCvs6G_dxDZ-sjj0B-52">
          <mxGeometry x="-0.7753" relative="1" as="geometry">
            <mxPoint as="offset" />
          </mxGeometry>
        </mxCell>
        <mxCell id="TtNOCvs6G_dxDZ-sjj0B-5" value="студент" style="whiteSpace=wrap;html=1;align=center;" vertex="1" parent="1">
          <mxGeometry x="150" y="210" width="100" height="50" as="geometry" />
        </mxCell>
        <mxCell id="TtNOCvs6G_dxDZ-sjj0B-25" style="edgeStyle=orthogonalEdgeStyle;rounded=0;orthogonalLoop=1;jettySize=auto;html=1;endArrow=none;endFill=0;" edge="1" parent="1" source="TtNOCvs6G_dxDZ-sjj0B-6" target="TtNOCvs6G_dxDZ-sjj0B-24">
          <mxGeometry relative="1" as="geometry" />
        </mxCell>
        <mxCell id="TtNOCvs6G_dxDZ-sjj0B-54" value="&lt;div&gt;*&lt;/div&gt;" style="edgeLabel;html=1;align=center;verticalAlign=middle;resizable=0;points=[];" vertex="1" connectable="0" parent="TtNOCvs6G_dxDZ-sjj0B-25">
          <mxGeometry x="0.28" y="1" relative="1" as="geometry">
            <mxPoint as="offset" />
          </mxGeometry>
        </mxCell>
        <mxCell id="TtNOCvs6G_dxDZ-sjj0B-41" style="edgeStyle=orthogonalEdgeStyle;rounded=0;orthogonalLoop=1;jettySize=auto;html=1;endArrow=none;endFill=0;" edge="1" parent="1" source="TtNOCvs6G_dxDZ-sjj0B-6" target="TtNOCvs6G_dxDZ-sjj0B-38">
          <mxGeometry relative="1" as="geometry" />
        </mxCell>
        <mxCell id="TtNOCvs6G_dxDZ-sjj0B-55" value="*" style="edgeLabel;html=1;align=center;verticalAlign=middle;resizable=0;points=[];" vertex="1" connectable="0" parent="TtNOCvs6G_dxDZ-sjj0B-41">
          <mxGeometry x="0.4667" y="3" relative="1" as="geometry">
            <mxPoint as="offset" />
          </mxGeometry>
        </mxCell>
        <mxCell id="TtNOCvs6G_dxDZ-sjj0B-6" value="сдаёт" style="shape=rhombus;perimeter=rhombusPerimeter;whiteSpace=wrap;html=1;align=center;" vertex="1" parent="1">
          <mxGeometry x="330" y="200" width="120" height="60" as="geometry" />
        </mxCell>
        <mxCell id="TtNOCvs6G_dxDZ-sjj0B-46" style="rounded=0;orthogonalLoop=1;jettySize=auto;html=1;entryX=0;entryY=0.5;entryDx=0;entryDy=0;endArrow=none;endFill=0;" edge="1" parent="1" source="TtNOCvs6G_dxDZ-sjj0B-8" target="TtNOCvs6G_dxDZ-sjj0B-5">
          <mxGeometry relative="1" as="geometry" />
        </mxCell>
        <mxCell id="TtNOCvs6G_dxDZ-sjj0B-8" value="номер паспорта" style="ellipse;whiteSpace=wrap;html=1;align=center;fontStyle=4;" vertex="1" parent="1">
          <mxGeometry y="140" width="100" height="40" as="geometry" />
        </mxCell>
        <mxCell id="TtNOCvs6G_dxDZ-sjj0B-16" style="edgeStyle=orthogonalEdgeStyle;rounded=0;orthogonalLoop=1;jettySize=auto;html=1;entryX=0.5;entryY=0;entryDx=0;entryDy=0;endArrow=none;endFill=0;" edge="1" parent="1" source="TtNOCvs6G_dxDZ-sjj0B-13" target="TtNOCvs6G_dxDZ-sjj0B-15">
          <mxGeometry relative="1" as="geometry" />
        </mxCell>
        <mxCell id="TtNOCvs6G_dxDZ-sjj0B-18" value="1" style="edgeLabel;html=1;align=center;verticalAlign=middle;resizable=0;points=[];" vertex="1" connectable="0" parent="TtNOCvs6G_dxDZ-sjj0B-16">
          <mxGeometry x="0.56" relative="1" as="geometry">
            <mxPoint as="offset" />
          </mxGeometry>
        </mxCell>
        <mxCell id="TtNOCvs6G_dxDZ-sjj0B-13" value="находится" style="shape=rhombus;perimeter=rhombusPerimeter;whiteSpace=wrap;html=1;align=center;" vertex="1" parent="1">
          <mxGeometry x="140" y="310" width="120" height="60" as="geometry" />
        </mxCell>
        <mxCell id="TtNOCvs6G_dxDZ-sjj0B-15" value="группа" style="whiteSpace=wrap;html=1;align=center;" vertex="1" parent="1">
          <mxGeometry x="150" y="420" width="100" height="40" as="geometry" />
        </mxCell>
        <mxCell id="TtNOCvs6G_dxDZ-sjj0B-20" style="edgeStyle=orthogonalEdgeStyle;rounded=0;orthogonalLoop=1;jettySize=auto;html=1;entryX=0;entryY=0.5;entryDx=0;entryDy=0;endArrow=none;endFill=0;" edge="1" parent="1" source="TtNOCvs6G_dxDZ-sjj0B-19" target="TtNOCvs6G_dxDZ-sjj0B-15">
          <mxGeometry relative="1" as="geometry" />
        </mxCell>
        <mxCell id="TtNOCvs6G_dxDZ-sjj0B-19" value="номер" style="ellipse;whiteSpace=wrap;html=1;align=center;fontStyle=4;" vertex="1" parent="1">
          <mxGeometry x="20" y="420" width="100" height="40" as="geometry" />
        </mxCell>
        <mxCell id="TtNOCvs6G_dxDZ-sjj0B-21" value="контактирует" style="shape=rhombus;perimeter=rhombusPerimeter;whiteSpace=wrap;html=1;align=center;" vertex="1" parent="1">
          <mxGeometry x="320" y="50" width="120" height="60" as="geometry" />
        </mxCell>
        <mxCell id="TtNOCvs6G_dxDZ-sjj0B-26" style="edgeStyle=orthogonalEdgeStyle;rounded=0;orthogonalLoop=1;jettySize=auto;html=1;entryX=1;entryY=0.5;entryDx=0;entryDy=0;endArrow=none;endFill=0;" edge="1" parent="1" source="TtNOCvs6G_dxDZ-sjj0B-24" target="TtNOCvs6G_dxDZ-sjj0B-21">
          <mxGeometry relative="1" as="geometry">
            <Array as="points">
              <mxPoint x="550" y="80" />
            </Array>
          </mxGeometry>
        </mxCell>
        <mxCell id="TtNOCvs6G_dxDZ-sjj0B-27" value="1" style="edgeLabel;html=1;align=center;verticalAlign=middle;resizable=0;points=[];" vertex="1" connectable="0" parent="TtNOCvs6G_dxDZ-sjj0B-26">
          <mxGeometry x="-0.5429" relative="1" as="geometry">
            <mxPoint as="offset" />
          </mxGeometry>
        </mxCell>
        <mxCell id="TtNOCvs6G_dxDZ-sjj0B-75" style="rounded=0;orthogonalLoop=1;jettySize=auto;html=1;endArrow=none;endFill=0;exitX=0.5;exitY=1;exitDx=0;exitDy=0;entryX=0.5;entryY=0;entryDx=0;entryDy=0;" edge="1" parent="1" source="TtNOCvs6G_dxDZ-sjj0B-24" target="TtNOCvs6G_dxDZ-sjj0B-74">
          <mxGeometry relative="1" as="geometry" />
        </mxCell>
        <mxCell id="TtNOCvs6G_dxDZ-sjj0B-81" value="*" style="edgeLabel;html=1;align=center;verticalAlign=middle;resizable=0;points=[];" vertex="1" connectable="0" parent="TtNOCvs6G_dxDZ-sjj0B-75">
          <mxGeometry x="-0.725" y="-2" relative="1" as="geometry">
            <mxPoint as="offset" />
          </mxGeometry>
        </mxCell>
        <mxCell id="TtNOCvs6G_dxDZ-sjj0B-24" value="сотрудник" style="whiteSpace=wrap;html=1;align=center;" vertex="1" parent="1">
          <mxGeometry x="500" y="210" width="100" height="40" as="geometry" />
        </mxCell>
        <mxCell id="TtNOCvs6G_dxDZ-sjj0B-49" style="rounded=0;orthogonalLoop=1;jettySize=auto;html=1;exitX=0.5;exitY=1;exitDx=0;exitDy=0;endArrow=none;endFill=0;" edge="1" parent="1" source="TtNOCvs6G_dxDZ-sjj0B-28">
          <mxGeometry relative="1" as="geometry">
            <mxPoint x="390" y="200" as="targetPoint" />
          </mxGeometry>
        </mxCell>
        <mxCell id="TtNOCvs6G_dxDZ-sjj0B-28" value="оценка" style="ellipse;whiteSpace=wrap;html=1;align=center;" vertex="1" parent="1">
          <mxGeometry x="260" y="140" width="100" height="40" as="geometry" />
        </mxCell>
        <mxCell id="TtNOCvs6G_dxDZ-sjj0B-31" style="rounded=0;orthogonalLoop=1;jettySize=auto;html=1;endArrow=none;endFill=0;entryX=0.5;entryY=0;entryDx=0;entryDy=0;exitX=0.5;exitY=1;exitDx=0;exitDy=0;" edge="1" parent="1" source="TtNOCvs6G_dxDZ-sjj0B-29" target="TtNOCvs6G_dxDZ-sjj0B-6">
          <mxGeometry relative="1" as="geometry">
            <mxPoint x="390" y="190" as="targetPoint" />
          </mxGeometry>
        </mxCell>
        <mxCell id="TtNOCvs6G_dxDZ-sjj0B-29" value="дата" style="ellipse;whiteSpace=wrap;html=1;align=center;" vertex="1" parent="1">
          <mxGeometry x="410" y="140" width="100" height="40" as="geometry" />
        </mxCell>
        <mxCell id="TtNOCvs6G_dxDZ-sjj0B-33" value="№ паспорта" style="ellipse;whiteSpace=wrap;html=1;align=center;fontStyle=4;" vertex="1" parent="1">
          <mxGeometry x="650" y="170" width="100" height="40" as="geometry" />
        </mxCell>
        <mxCell id="TtNOCvs6G_dxDZ-sjj0B-34" value="фио" style="ellipse;whiteSpace=wrap;html=1;align=center;" vertex="1" parent="1">
          <mxGeometry x="650" y="250" width="100" height="40" as="geometry" />
        </mxCell>
        <mxCell id="TtNOCvs6G_dxDZ-sjj0B-35" style="rounded=0;orthogonalLoop=1;jettySize=auto;html=1;entryX=1;entryY=0.5;entryDx=0;entryDy=0;endArrow=none;endFill=0;" edge="1" parent="1" source="TtNOCvs6G_dxDZ-sjj0B-33" target="TtNOCvs6G_dxDZ-sjj0B-24">
          <mxGeometry relative="1" as="geometry" />
        </mxCell>
        <mxCell id="TtNOCvs6G_dxDZ-sjj0B-36" style="rounded=0;orthogonalLoop=1;jettySize=auto;html=1;entryX=1;entryY=0.5;entryDx=0;entryDy=0;endArrow=none;endFill=0;" edge="1" parent="1" source="TtNOCvs6G_dxDZ-sjj0B-34" target="TtNOCvs6G_dxDZ-sjj0B-24">
          <mxGeometry relative="1" as="geometry" />
        </mxCell>
        <mxCell id="TtNOCvs6G_dxDZ-sjj0B-37" value="преподаёт" style="shape=rhombus;perimeter=rhombusPerimeter;whiteSpace=wrap;html=1;align=center;" vertex="1" parent="1">
          <mxGeometry x="414" y="290" width="120" height="60" as="geometry" />
        </mxCell>
        <mxCell id="TtNOCvs6G_dxDZ-sjj0B-39" style="rounded=0;orthogonalLoop=1;jettySize=auto;html=1;entryX=0;entryY=0.5;entryDx=0;entryDy=0;endArrow=none;endFill=0;exitX=0.5;exitY=0;exitDx=0;exitDy=0;" edge="1" parent="1" source="TtNOCvs6G_dxDZ-sjj0B-38" target="TtNOCvs6G_dxDZ-sjj0B-37">
          <mxGeometry relative="1" as="geometry" />
        </mxCell>
        <mxCell id="TtNOCvs6G_dxDZ-sjj0B-56" value="*" style="edgeLabel;html=1;align=center;verticalAlign=middle;resizable=0;points=[];" vertex="1" connectable="0" parent="TtNOCvs6G_dxDZ-sjj0B-39">
          <mxGeometry x="-0.2195" relative="1" as="geometry">
            <mxPoint as="offset" />
          </mxGeometry>
        </mxCell>
        <mxCell id="TtNOCvs6G_dxDZ-sjj0B-44" style="rounded=0;orthogonalLoop=1;jettySize=auto;html=1;entryX=0;entryY=0.5;entryDx=0;entryDy=0;endArrow=none;endFill=0;" edge="1" parent="1" source="TtNOCvs6G_dxDZ-sjj0B-38" target="TtNOCvs6G_dxDZ-sjj0B-42">
          <mxGeometry relative="1" as="geometry" />
        </mxCell>
        <mxCell id="TtNOCvs6G_dxDZ-sjj0B-60" style="rounded=0;orthogonalLoop=1;jettySize=auto;html=1;entryX=0.5;entryY=0;entryDx=0;entryDy=0;endArrow=none;endFill=0;" edge="1" parent="1" source="TtNOCvs6G_dxDZ-sjj0B-38" target="TtNOCvs6G_dxDZ-sjj0B-59">
          <mxGeometry relative="1" as="geometry" />
        </mxCell>
        <mxCell id="TtNOCvs6G_dxDZ-sjj0B-61" value="*" style="edgeLabel;html=1;align=center;verticalAlign=middle;resizable=0;points=[];" vertex="1" connectable="0" parent="TtNOCvs6G_dxDZ-sjj0B-60">
          <mxGeometry x="-0.1333" y="1" relative="1" as="geometry">
            <mxPoint as="offset" />
          </mxGeometry>
        </mxCell>
        <mxCell id="TtNOCvs6G_dxDZ-sjj0B-38" value="предмет" style="whiteSpace=wrap;html=1;align=center;" vertex="1" parent="1">
          <mxGeometry x="340" y="350" width="100" height="40" as="geometry" />
        </mxCell>
        <mxCell id="TtNOCvs6G_dxDZ-sjj0B-40" style="rounded=0;orthogonalLoop=1;jettySize=auto;html=1;entryX=1;entryY=0.5;entryDx=0;entryDy=0;endArrow=none;endFill=0;" edge="1" parent="1" source="TtNOCvs6G_dxDZ-sjj0B-24" target="TtNOCvs6G_dxDZ-sjj0B-37">
          <mxGeometry relative="1" as="geometry" />
        </mxCell>
        <mxCell id="TtNOCvs6G_dxDZ-sjj0B-57" value="*" style="edgeLabel;html=1;align=center;verticalAlign=middle;resizable=0;points=[];" vertex="1" connectable="0" parent="TtNOCvs6G_dxDZ-sjj0B-40">
          <mxGeometry x="-0.2254" y="-1" relative="1" as="geometry">
            <mxPoint as="offset" />
          </mxGeometry>
        </mxCell>
        <mxCell id="TtNOCvs6G_dxDZ-sjj0B-42" value="описание" style="ellipse;whiteSpace=wrap;html=1;align=center;" vertex="1" parent="1">
          <mxGeometry x="500" y="340" width="100" height="40" as="geometry" />
        </mxCell>
        <mxCell id="TtNOCvs6G_dxDZ-sjj0B-45" style="rounded=0;orthogonalLoop=1;jettySize=auto;html=1;entryX=1;entryY=0.5;entryDx=0;entryDy=0;endArrow=none;endFill=0;" edge="1" parent="1" source="TtNOCvs6G_dxDZ-sjj0B-43" target="TtNOCvs6G_dxDZ-sjj0B-38">
          <mxGeometry relative="1" as="geometry" />
        </mxCell>
        <mxCell id="TtNOCvs6G_dxDZ-sjj0B-43" value="название" style="ellipse;whiteSpace=wrap;html=1;align=center;fontStyle=4;" vertex="1" parent="1">
          <mxGeometry x="500" y="380" width="100" height="40" as="geometry" />
        </mxCell>
        <mxCell id="TtNOCvs6G_dxDZ-sjj0B-71" style="edgeStyle=orthogonalEdgeStyle;rounded=0;orthogonalLoop=1;jettySize=auto;html=1;entryX=0.5;entryY=0;entryDx=0;entryDy=0;endArrow=none;endFill=0;" edge="1" parent="1" source="TtNOCvs6G_dxDZ-sjj0B-59" target="TtNOCvs6G_dxDZ-sjj0B-69">
          <mxGeometry relative="1" as="geometry" />
        </mxCell>
        <mxCell id="TtNOCvs6G_dxDZ-sjj0B-72" value="*" style="edgeLabel;html=1;align=center;verticalAlign=middle;resizable=0;points=[];" vertex="1" connectable="0" parent="TtNOCvs6G_dxDZ-sjj0B-71">
          <mxGeometry x="0.4333" y="-2" relative="1" as="geometry">
            <mxPoint as="offset" />
          </mxGeometry>
        </mxCell>
        <mxCell id="TtNOCvs6G_dxDZ-sjj0B-59" value="проходит" style="shape=rhombus;perimeter=rhombusPerimeter;whiteSpace=wrap;html=1;align=center;" vertex="1" parent="1">
          <mxGeometry x="330" y="470" width="120" height="60" as="geometry" />
        </mxCell>
        <mxCell id="TtNOCvs6G_dxDZ-sjj0B-62" style="rounded=0;orthogonalLoop=1;jettySize=auto;html=1;endArrow=none;endFill=0;entryX=0;entryY=0.5;entryDx=0;entryDy=0;" edge="1" parent="1" source="TtNOCvs6G_dxDZ-sjj0B-15" target="TtNOCvs6G_dxDZ-sjj0B-59">
          <mxGeometry relative="1" as="geometry">
            <mxPoint x="330" y="450" as="targetPoint" />
          </mxGeometry>
        </mxCell>
        <mxCell id="TtNOCvs6G_dxDZ-sjj0B-82" value="*" style="edgeLabel;html=1;align=center;verticalAlign=middle;resizable=0;points=[];" vertex="1" connectable="0" parent="TtNOCvs6G_dxDZ-sjj0B-62">
          <mxGeometry x="-0.5088" y="1" relative="1" as="geometry">
            <mxPoint as="offset" />
          </mxGeometry>
        </mxCell>
        <mxCell id="TtNOCvs6G_dxDZ-sjj0B-66" style="rounded=0;orthogonalLoop=1;jettySize=auto;html=1;entryX=1;entryY=0.5;entryDx=0;entryDy=0;endArrow=none;endFill=0;exitX=0;exitY=0.5;exitDx=0;exitDy=0;" edge="1" parent="1" source="TtNOCvs6G_dxDZ-sjj0B-63" target="TtNOCvs6G_dxDZ-sjj0B-59">
          <mxGeometry relative="1" as="geometry" />
        </mxCell>
        <mxCell id="TtNOCvs6G_dxDZ-sjj0B-63" value="№ недели" style="ellipse;whiteSpace=wrap;html=1;align=center;" vertex="1" parent="1">
          <mxGeometry x="500" y="450" width="100" height="40" as="geometry" />
        </mxCell>
        <mxCell id="TtNOCvs6G_dxDZ-sjj0B-67" style="rounded=0;orthogonalLoop=1;jettySize=auto;html=1;entryX=1;entryY=0.5;entryDx=0;entryDy=0;endArrow=none;endFill=0;" edge="1" parent="1" source="TtNOCvs6G_dxDZ-sjj0B-64" target="TtNOCvs6G_dxDZ-sjj0B-59">
          <mxGeometry relative="1" as="geometry" />
        </mxCell>
        <mxCell id="TtNOCvs6G_dxDZ-sjj0B-64" value="день недели" style="ellipse;whiteSpace=wrap;html=1;align=center;" vertex="1" parent="1">
          <mxGeometry x="500" y="490" width="100" height="40" as="geometry" />
        </mxCell>
        <mxCell id="TtNOCvs6G_dxDZ-sjj0B-68" style="rounded=0;orthogonalLoop=1;jettySize=auto;html=1;entryX=1;entryY=0.5;entryDx=0;entryDy=0;endArrow=none;endFill=0;exitX=0;exitY=0.5;exitDx=0;exitDy=0;" edge="1" parent="1" source="TtNOCvs6G_dxDZ-sjj0B-65" target="TtNOCvs6G_dxDZ-sjj0B-59">
          <mxGeometry relative="1" as="geometry" />
        </mxCell>
        <mxCell id="TtNOCvs6G_dxDZ-sjj0B-65" value="аудитория" style="ellipse;whiteSpace=wrap;html=1;align=center;" vertex="1" parent="1">
          <mxGeometry x="500" y="530" width="100" height="40" as="geometry" />
        </mxCell>
        <mxCell id="TtNOCvs6G_dxDZ-sjj0B-73" style="rounded=0;orthogonalLoop=1;jettySize=auto;html=1;entryX=0;entryY=0.5;entryDx=0;entryDy=0;endArrow=none;endFill=0;" edge="1" parent="1" source="TtNOCvs6G_dxDZ-sjj0B-69" target="TtNOCvs6G_dxDZ-sjj0B-70">
          <mxGeometry relative="1" as="geometry" />
        </mxCell>
        <mxCell id="TtNOCvs6G_dxDZ-sjj0B-69" value="вид занятий" style="whiteSpace=wrap;html=1;align=center;" vertex="1" parent="1">
          <mxGeometry x="340" y="590" width="100" height="40" as="geometry" />
        </mxCell>
        <mxCell id="TtNOCvs6G_dxDZ-sjj0B-70" value="&lt;div&gt;вид&lt;/div&gt;" style="ellipse;whiteSpace=wrap;html=1;align=center;fontStyle=4;" vertex="1" parent="1">
          <mxGeometry x="500" y="590" width="100" height="40" as="geometry" />
        </mxCell>
        <mxCell id="TtNOCvs6G_dxDZ-sjj0B-78" style="edgeStyle=orthogonalEdgeStyle;rounded=0;orthogonalLoop=1;jettySize=auto;html=1;entryX=0.5;entryY=0;entryDx=0;entryDy=0;endArrow=none;endFill=0;" edge="1" parent="1" source="TtNOCvs6G_dxDZ-sjj0B-74" target="TtNOCvs6G_dxDZ-sjj0B-76">
          <mxGeometry relative="1" as="geometry" />
        </mxCell>
        <mxCell id="TtNOCvs6G_dxDZ-sjj0B-80" value="1" style="edgeLabel;html=1;align=center;verticalAlign=middle;resizable=0;points=[];" vertex="1" connectable="0" parent="TtNOCvs6G_dxDZ-sjj0B-78">
          <mxGeometry x="0.52" y="-1" relative="1" as="geometry">
            <mxPoint as="offset" />
          </mxGeometry>
        </mxCell>
        <mxCell id="TtNOCvs6G_dxDZ-sjj0B-74" value="занимает" style="shape=rhombus;perimeter=rhombusPerimeter;whiteSpace=wrap;html=1;align=center;" vertex="1" parent="1">
          <mxGeometry x="650" y="330" width="120" height="60" as="geometry" />
        </mxCell>
        <mxCell id="TtNOCvs6G_dxDZ-sjj0B-79" style="edgeStyle=orthogonalEdgeStyle;rounded=0;orthogonalLoop=1;jettySize=auto;html=1;entryX=0.5;entryY=0;entryDx=0;entryDy=0;endArrow=none;endFill=0;" edge="1" parent="1" source="TtNOCvs6G_dxDZ-sjj0B-76" target="TtNOCvs6G_dxDZ-sjj0B-77">
          <mxGeometry relative="1" as="geometry" />
        </mxCell>
        <mxCell id="TtNOCvs6G_dxDZ-sjj0B-76" value="должность" style="whiteSpace=wrap;html=1;align=center;" vertex="1" parent="1">
          <mxGeometry x="660" y="420" width="100" height="40" as="geometry" />
        </mxCell>
        <mxCell id="TtNOCvs6G_dxDZ-sjj0B-77" value="название" style="ellipse;whiteSpace=wrap;html=1;align=center;fontStyle=4;" vertex="1" parent="1">
          <mxGeometry x="660" y="500" width="100" height="40" as="geometry" />
        </mxCell>
      </root>
    </mxGraphModel>
  </diagram>
</mxfile>
